<svg id="Layer_1" data-name="Layer 1" xmlns="http://www.w3.org/2000/svg" xmlns:xlink="http://www.w3.org/1999/xlink" viewBox="0 0 430.31 425.64"><defs><clipPath id="clip-path"><path d="M37,420.64V278.37C37,160.6,106.53,53.78,214.61,5.47h0l.47.21C323.49,53.84,393.3,160.84,393.3,278.86V420.64Z" style="fill:none"/></clipPath></defs><title>1</title><g id="OBJECTS"><path d="M37,420.64V278.37C37,160.6,106.53,53.78,214.61,5.47h0l.47.21C323.49,53.84,393.3,160.84,393.3,278.86V420.64Z" style="fill:#e4ebff"/><ellipse cx="210.1" cy="111.92" rx="53.56" ry="53.23" style="fill:none;stroke:#fff;stroke-miterlimit:10"/><ellipse cx="214.28" cy="107.62" rx="48.08" ry="47.79" style="fill:#fff"/><ellipse cx="219.14" cy="107.62" rx="57.89" ry="57.54" style="fill:none;stroke:#fff;stroke-miterlimit:10"/><g style="clip-path:url(#clip-path)"><path d="M175.46,216.91l0-.24c-.07-.55-.15-1.09-.24-1.63,0-.11,0-.21-.05-.32-.09-.54-.2-1.07-.31-1.6l-.06-.3q-.18-.82-.39-1.65c0-.06,0-.12,0-.18a46.69,46.69,0,0,0-38-34.38h0a46.76,46.76,0,0,1-34-24.21h1.26a4.12,4.12,0,0,0,4.14-4.12v-.41a4.14,4.14,0,0,0-4.14-4.12H100L99.46,135a4.1,4.1,0,0,0-.48-7.86l-.93-15.27-.93,15.27a4.09,4.09,0,0,0-.49,7.85l-.54,8.76H92.56a4.12,4.12,0,0,0-4.14,4.12v.41a4.14,4.14,0,0,0,4.14,4.12h1.25A46.76,46.76,0,0,1,59.76,176.6h0a46.72,46.72,0,0,0-36.95,30.84h0l0,.09c-.16.47-.31.93-.46,1.41l-.18.58c-.12.39-.23.79-.33,1.18l-.21.82c-.08.35-.17.69-.24,1s-.14.65-.2,1l-.18.94-.18,1.1c0,.29-.09.58-.13.87s-.1.81-.14,1.21-.06.53-.08.79q-.06.69-.09,1.38c0,.22,0,.43,0,.65,0,.68-.05,1.37-.05,2.06V369.63H175.82v-145h0v-2.1A46,46,0,0,0,175.46,216.91Z" style="fill:#cfdcff"/><path d="M409.68,216.91l0-.24c-.07-.55-.15-1.09-.24-1.63,0-.11,0-.21-.05-.32-.09-.54-.2-1.07-.31-1.6l-.06-.3q-.18-.82-.39-1.65c0-.06,0-.12-.05-.18a46.69,46.69,0,0,0-38-34.38h0a46.76,46.76,0,0,1-34-24.21h1.26a4.12,4.12,0,0,0,4.14-4.12v-.41a4.14,4.14,0,0,0-4.14-4.12h-3.53l-.54-8.76a4.1,4.1,0,0,0-.48-7.86l-.93-15.27-.93,15.27a4.09,4.09,0,0,0-.49,7.85l-.54,8.76h-3.53a4.12,4.12,0,0,0-4.14,4.12v.41a4.14,4.14,0,0,0,4.14,4.12H328a46.76,46.76,0,0,1-34,24.21h0a46.72,46.72,0,0,0-37,30.84h0l0,.09c-.16.47-.31.93-.46,1.41l-.18.58c-.12.39-.23.79-.33,1.18l-.21.82c-.08.35-.17.69-.24,1s-.14.65-.2,1l-.18.94-.18,1.1c0,.29-.09.58-.13.87s-.1.81-.14,1.21-.06.53-.08.79q-.06.69-.09,1.38c0,.22,0,.43,0,.65,0,.68-.05,1.37-.05,2.06V369.63H410v-145h0v-2.1A46,46,0,0,0,409.68,216.91Z" style="fill:#cfdcff"/></g><g style="clip-path:url(#clip-path)"><path d="M107.84,331.19c0-.38-.11-.76-.17-1.14l0-.22c-.06-.37-.14-.75-.21-1.12,0-.07,0-.13,0-.2-.08-.38-.17-.77-.27-1.15l0-.12a32.45,32.45,0,0,0-26.42-23.89h0A32.54,32.54,0,0,1,57,286.52h.73a3,3,0,1,0,0-6H55.42l-.37-6.09a2.84,2.84,0,0,0-.33-5.46l-.65-10.61L53.42,269a2.85,2.85,0,0,0-.34,5.46l-.37,6.09H50.4a3,3,0,1,0,0,6h.73a32.5,32.5,0,0,1-23.67,16.83h0A32.47,32.47,0,0,0,1.78,324.78h0s0,0,0,.06c-.11.32-.22.65-.32,1l-.12.4c-.08.27-.16.55-.23.82s-.1.38-.14.57-.12.48-.17.73-.1.45-.14.68-.09.44-.13.66l-.12.76-.09.61c0,.28-.07.56-.1.84l-.06.55c0,.32-.05.64-.07,1l0,.45c0,.47,0,.95,0,1.43v1.46a32.89,32.89,0,0,0,.17,3.31c0,.4.1.8.15,1.2,0,.14,0,.28,0,.42A32,32,0,0,0,5.15,354.2H0v20H108.11v-20H103a32,32,0,0,0,5.16-17.46v-1.46a31.9,31.9,0,0,0-.25-3.93C107.85,331.29,107.85,331.24,107.84,331.19Z" style="fill:#54b0a2"/><path d="M430.31,335.28a31.9,31.9,0,0,0-.25-3.93c0-.05,0-.11,0-.16-.05-.38-.11-.76-.17-1.14l0-.22c-.06-.37-.14-.75-.21-1.12,0-.07,0-.13,0-.2-.08-.38-.17-.77-.27-1.15l0-.12a32.45,32.45,0,0,0-26.42-23.89h0a32.54,32.54,0,0,1-23.67-16.83h.73a3,3,0,1,0,0-6h-2.31l-.37-6.09a2.84,2.84,0,0,0-.33-5.46l-.65-10.61L375.62,269a2.85,2.85,0,0,0-.34,5.46l-.37,6.09H372.6a3,3,0,1,0,0,6h.73a32.5,32.5,0,0,1-23.67,16.83h0A32.47,32.47,0,0,0,324,324.78h0s0,0,0,.06c-.11.32-.22.65-.32,1l-.12.4c-.08.27-.16.55-.23.82s-.1.38-.14.57-.12.48-.17.73-.1.45-.14.68-.09.44-.13.66l-.12.76-.09.61c0,.28-.07.56-.1.84l-.06.55c0,.32,0,.64-.07,1l0,.45c0,.47,0,.95,0,1.43v1.46a32.89,32.89,0,0,0,.17,3.31c0,.4.1.8.15,1.2,0,.14,0,.28.05.42a32,32,0,0,0,4.78,12.53H322.2v20H430.31v-20h-5.16a32,32,0,0,0,5.16-17.46v-1.46Z" style="fill:#606060"/></g><path d="M214.6,5.47l.47.21C323.49,53.84,393.3,160.84,393.3,278.86V420.64H37V278.37C37,160.6,106.52,53.78,214.6,5.47h0m0-5.47-2,.91A304.16,304.16,0,0,0,32,278.38V425.65H398.3V278.86A302.22,302.22,0,0,0,349,113.34,304.89,304.89,0,0,0,217.1,1.11L216.64.9l-2-.9Z" style="fill:#ffd374"/><path d="M309,101.49a1.63,1.63,0,0,0,0,3.26A1.63,1.63,0,0,0,309,101.49Z" style="fill:#fff"/><path d="M210.1,16.48a1.63,1.63,0,0,0,0,3.26A1.63,1.63,0,0,0,210.1,16.48Z" style="fill:#fff"/><path d="M131.68,148.74a1.63,1.63,0,0,0,0,3.26A1.63,1.63,0,0,0,131.68,148.74Z" style="fill:#fff"/><path d="M141.62,113.75a1.63,1.63,0,0,0,0,3.26A1.63,1.63,0,0,0,141.62,113.75Z" style="fill:#fff"/><path d="M117.11,93.16a1.68,1.68,0,0,0-.43-.74l-.35-.26a1.63,1.63,0,0,0-.81-.21h-.41a1.27,1.27,0,0,0-.61.13,1.37,1.37,0,0,0-.55.34,1.21,1.21,0,0,0-.35.54,1.16,1.16,0,0,0-.13.61c0,.14,0,.28,0,.41a1.68,1.68,0,0,0,.43.74l.35.26a1.63,1.63,0,0,0,.81.21h.41a1.27,1.27,0,0,0,.61-.13,1.37,1.37,0,0,0,.55-.34,1.21,1.21,0,0,0,.35-.54,1.16,1.16,0,0,0,.13-.61C117.15,93.43,117.13,93.29,117.11,93.16Z" style="fill:#fff"/><path d="M286.89,113.75a1.63,1.63,0,0,0,0,3.26A1.63,1.63,0,0,0,286.89,113.75Z" style="fill:#fff"/><path d="M300.64,144.62a1.63,1.63,0,0,0,0,3.26A1.63,1.63,0,0,0,300.64,144.62Z" style="fill:#fff"/><path d="M286.89,63.73a1.63,1.63,0,0,0,0,3.26A1.63,1.63,0,0,0,286.89,63.73Z" style="fill:#fff"/><path d="M350.75,147.91a1.63,1.63,0,0,0,0,3.26A1.63,1.63,0,0,0,350.75,147.91Z" style="fill:#fff"/><path d="M79.08,154.5a1.63,1.63,0,0,0,0,3.26A1.63,1.63,0,0,0,79.08,154.5Z" style="fill:#fff"/><path d="M145.56,73.72a1.63,1.63,0,0,0,0,3.26A1.63,1.63,0,0,0,145.56,73.72Z" style="fill:#fff"/><path d="M172.63,169.45a1.63,1.63,0,0,0,0,3.26A1.63,1.63,0,0,0,172.63,169.45Z" style="fill:#fff"/><path d="M188.44,45.75a1.63,1.63,0,0,0,0,3.26A1.63,1.63,0,0,0,188.44,45.75Z" style="fill:#fff"/><path d="M246.13,35.93a1.63,1.63,0,0,0,0,3.26A1.63,1.63,0,0,0,246.13,35.93Z" style="fill:#fff"/><path d="M326.29,257.57a20.09,20.09,0,0,0,1-32.76l-19.19-14.59-19.23,14.59a20.09,20.09,0,0,0,1,32.76Z" style="fill:#3b2579"/><path d="M311.08,244.39a16.91,16.91,0,0,1-17-16.53v-.21a19.93,19.93,0,0,1,1.7-8.07l-6.9,5.24a20.09,20.09,0,0,0,1,32.75h36.45a20.2,20.2,0,0,0,8.65-13.18Z" style="fill:#1f144c"/><path d="M323.83,255.5H272.2v13.63h0a8.3,8.3,0,0,1,8.3,8.3V420.65h35V277.43a8.3,8.3,0,0,1,8.3-8.3h0V255.5Z" style="fill:#1f144c"/><path d="M344,255.5H295.86v13.63h0a8.3,8.3,0,0,1,8.3,8.3V420.65h31.5V277.43a8.3,8.3,0,0,1,8.3-8.3h0V255.5Z" style="fill:#3b2579"/><path d="M324.49,280.44V289h-9.18v-8.59a4.59,4.59,0,0,1,9.18,0Z" style="fill:#feb004"/><path d="M320.71,280.44V289h-5.4v-8.59a4.59,4.59,0,0,1,2.69-4.18A4.58,4.58,0,0,1,320.71,280.44Z" style="fill:#ffd374"/><line x1="304.15" y1="290.41" x2="339.72" y2="290.41" style="fill:none;stroke:#3b2579;stroke-miterlimit:10;stroke-width:4px"/><line x1="304.15" y1="294.63" x2="335.65" y2="294.63" style="fill:none;stroke:#1f144c;stroke-miterlimit:10;stroke-width:2px"/><path d="M324.49,312.19v8.59h-9.18v-8.59a4.59,4.59,0,0,1,9.18,0Z" style="fill:#feb004"/><path d="M320.71,312.19v8.59h-5.4v-8.59A4.59,4.59,0,0,1,318,308,4.57,4.57,0,0,1,320.71,312.19Z" style="fill:#ffd374"/><line x1="304.15" y1="322.15" x2="339.72" y2="322.15" style="fill:none;stroke:#3b2579;stroke-miterlimit:10;stroke-width:4px"/><line x1="304.15" y1="326.37" x2="335.65" y2="326.37" style="fill:none;stroke:#1f144c;stroke-miterlimit:10;stroke-width:2px"/><path d="M324.49,343.93v8.59h-9.18v-8.59a4.59,4.59,0,1,1,9.18,0Z" style="fill:#feb004"/><path d="M320.71,343.93v8.59h-5.4v-8.59a4.59,4.59,0,0,1,2.69-4.18A4.58,4.58,0,0,1,320.71,343.93Z" style="fill:#ffd374"/><line x1="304.15" y1="353.89" x2="339.72" y2="353.89" style="fill:none;stroke:#3b2579;stroke-miterlimit:10;stroke-width:4px"/><line x1="304.15" y1="358.12" x2="335.65" y2="358.12" style="fill:none;stroke:#1f144c;stroke-miterlimit:10;stroke-width:2px"/><path d="M324.49,375.68v45h-9.18v-45a4.59,4.59,0,1,1,9.18,0Z" style="fill:#feb004"/><path d="M320.71,375.68v45h-5.4v-45A4.59,4.59,0,0,1,318,371.5,4.57,4.57,0,0,1,320.71,375.68Z" style="fill:#ffd374"/><path d="M312.84,210.67s0,0,0-.06a2.48,2.48,0,0,0-2.47-2h-1.22l-.3-4.83a2.25,2.25,0,0,0-.26-4.32l-.51-8.41-.51,8.41a2.25,2.25,0,0,0-.27,4.32l-.29,4.83h-1.22a2.47,2.47,0,0,0-2.47,2s0,0,0,.06a2.05,2.05,0,0,0,2.1,2.24h5.34A2.06,2.06,0,0,0,312.84,210.67Z" style="fill:#3b2579"/><path d="M215,195.86c-.16,1.93-.34,3.76-.48,5.34a4.8,4.8,0,0,1-4.79,4.37h0s0,0,0,0v5.72h0a2.56,2.56,0,0,1,2.55,2.52,2.51,2.51,0,0,1-.12.76,49,49,0,0,1-19.54,26,82.29,82.29,0,0,0-36.71,68.51v13H276.48V309.2a82.4,82.4,0,0,0-36.69-68.58,48.83,48.83,0,0,1-19.54-26,2.53,2.53,0,0,1,2.41-3.28h0v-5.72h0a4.8,4.8,0,0,1-4.77-4.36c-.11-1.26-.25-2.68-.38-4.19,0-.38-.07-.77-.1-1.17Z" style="fill:#3b2579"/><path d="M274.63,291.87H225.08c-26.35,0-43.54-28-31.24-51.32.07-.16.16-.33.25-.49s.29-.54.46-.8c-.62.47-1.26.91-1.92,1.35a82.28,82.28,0,0,0-36.7,68.5v13H276.48V309.19A82.47,82.47,0,0,0,274.63,291.87Z" style="fill:#1f144c"/><path d="M231,182a14.8,14.8,0,1,1-25.42-10.31,11.6,11.6,0,1,0,21.28,0A14.71,14.71,0,0,1,231,182Z" style="fill:#1f144c"/><path d="M229.32,179.37a13.13,13.13,0,1,1-23.75-7.71,11.6,11.6,0,1,0,21.28,0A13.1,13.1,0,0,1,229.32,179.37Z" style="fill:#3b2579"/><path d="M301.14,314.33H131.28V329h0a8.92,8.92,0,0,1,8.92,8.92v82.74h152V337.9a8.92,8.92,0,0,1,8.92-8.92h0V314.33Z" style="fill:#1f144c"/><path d="M290.6,314.33H179.94V329h0a8.92,8.92,0,0,1,8.92,8.92v82.74h92.82V337.9A8.92,8.92,0,0,1,290.6,329h0Z" style="fill:#3b2579"/><path d="M209.81,323.85v6.28H203.1v-6.28a3.36,3.36,0,1,1,6.71,0Z" style="fill:#feb004"/><path d="M229.08,323.85v6.28h-6.71v-6.28a3.36,3.36,0,1,1,6.71,0Z" style="fill:#feb004"/><path d="M248.35,323.85v6.28h-6.71v-6.28a3.36,3.36,0,1,1,6.71,0Z" style="fill:#feb004"/><path d="M267.62,323.85v6.28h-6.71v-6.28a3.36,3.36,0,1,1,6.71,0Z" style="fill:#feb004"/><path d="M207.05,323.85v6.28h-4v-6.28a3.36,3.36,0,0,1,2-3.06A3.37,3.37,0,0,1,207.05,323.85Z" style="fill:#ffd374"/><path d="M226.31,323.85v6.28h-3.95v-6.28a3.35,3.35,0,0,1,2-3.06A3.35,3.35,0,0,1,226.31,323.85Z" style="fill:#ffd374"/><path d="M245.59,323.85v6.28h-4v-6.28a3.35,3.35,0,0,1,2-3.06A3.36,3.36,0,0,1,245.59,323.85Z" style="fill:#ffd374"/><path d="M264.85,323.85v6.28h-4v-6.28a3.36,3.36,0,0,1,2-3.06A3.35,3.35,0,0,1,264.85,323.85Z" style="fill:#ffd374"/><path d="M256.32,374.94v45.7H214.23V375.26a19.93,19.93,0,0,1,2.44-9.57,20.14,20.14,0,0,1,6.71-7.24,40.08,40.08,0,0,0,6.67-5.43l.18-.18a39.24,39.24,0,0,0,5.41-7l.85,1.3a39.55,39.55,0,0,0,10.84,11.11l.24.17A20,20,0,0,1,256.32,374.94Z" style="fill:#feb004"/><path d="M245.19,374.94v45.7h-31V375.26a19.93,19.93,0,0,1,2.44-9.57,20.14,20.14,0,0,1,6.71-7.24,40.08,40.08,0,0,0,6.67-5.43,37.91,37.91,0,0,0,6.15,5.22l.24.17A20,20,0,0,1,245.19,374.94Z" style="fill:#ffd374"/><polyline points="266.47 420.64 266.47 338.47 204.08 338.47 204.08 420.64" style="fill:none;stroke:#1f144c;stroke-miterlimit:10;stroke-width:2px"/><path d="M214.23,420.64V375.26a19.93,19.93,0,0,1,2.44-9.57,20.14,20.14,0,0,1,6.71-7.24,40.08,40.08,0,0,0,6.67-5.43l.18-.18a39.24,39.24,0,0,0,5.41-7l.85,1.3a39.55,39.55,0,0,0,10.84,11.11l.24.17A20,20,0,0,1,256.31,375v45.7" style="fill:none;stroke:#1f144c;stroke-miterlimit:10;stroke-width:2px"/><path d="M141.57,257.57a20.09,20.09,0,0,0,1-32.76l-19.19-14.59-19.23,14.59a20.09,20.09,0,0,0,1,32.76Z" style="fill:#3b2579"/><path d="M126.36,244.39a16.91,16.91,0,0,1-17-16.53v-.21a19.93,19.93,0,0,1,1.7-8.07l-6.9,5.24a20.09,20.09,0,0,0,1,32.75h36.45a20.2,20.2,0,0,0,8.65-13.18Z" style="fill:#1f144c"/><path d="M139.1,255.5H87.47v13.63h0a8.3,8.3,0,0,1,8.3,8.3V420.65h35V277.43a8.3,8.3,0,0,1,8.3-8.3h0V255.5Z" style="fill:#1f144c"/><path d="M159.22,255.5H111.13v13.63h0a8.3,8.3,0,0,1,8.3,8.3V420.65h31.5V277.43a8.3,8.3,0,0,1,8.3-8.3h0V255.5Z" style="fill:#3b2579"/><path d="M139.76,280.44V289h-9.18v-8.59a4.59,4.59,0,0,1,9.18,0Z" style="fill:#feb004"/><path d="M136,280.44V289h-5.4v-8.59a4.59,4.59,0,0,1,2.69-4.18A4.58,4.58,0,0,1,136,280.44Z" style="fill:#ffd374"/><line x1="119.42" y1="290.41" x2="154.99" y2="290.41" style="fill:none;stroke:#3b2579;stroke-miterlimit:10;stroke-width:4px"/><line x1="119.42" y1="294.63" x2="150.92" y2="294.63" style="fill:none;stroke:#1f144c;stroke-miterlimit:10;stroke-width:2px"/><path d="M139.76,312.19v8.59h-9.18v-8.59a4.59,4.59,0,0,1,9.18,0Z" style="fill:#feb004"/><path d="M136,312.19v8.59h-5.4v-8.59a4.59,4.59,0,0,1,2.69-4.18A4.57,4.57,0,0,1,136,312.19Z" style="fill:#ffd374"/><line x1="119.42" y1="322.15" x2="154.99" y2="322.15" style="fill:none;stroke:#3b2579;stroke-miterlimit:10;stroke-width:4px"/><line x1="119.42" y1="326.37" x2="150.92" y2="326.37" style="fill:none;stroke:#1f144c;stroke-miterlimit:10;stroke-width:2px"/><path d="M139.76,343.93v8.59h-9.18v-8.59a4.59,4.59,0,0,1,9.18,0Z" style="fill:#feb004"/><path d="M136,343.93v8.59h-5.4v-8.59a4.59,4.59,0,0,1,2.69-4.18A4.58,4.58,0,0,1,136,343.93Z" style="fill:#ffd374"/><line x1="119.42" y1="353.89" x2="154.99" y2="353.89" style="fill:none;stroke:#3b2579;stroke-miterlimit:10;stroke-width:4px"/><line x1="119.42" y1="358.12" x2="150.92" y2="358.12" style="fill:none;stroke:#1f144c;stroke-miterlimit:10;stroke-width:2px"/><path d="M139.76,375.68v45h-9.18v-45a4.59,4.59,0,0,1,9.18,0Z" style="fill:#feb004"/><path d="M136,375.68v45h-5.4v-45a4.59,4.59,0,0,1,2.69-4.18A4.57,4.57,0,0,1,136,375.68Z" style="fill:#ffd374"/><path d="M128.11,210.67s0,0,0-.06a2.48,2.48,0,0,0-2.47-2h-1.22l-.3-4.83a2.25,2.25,0,0,0-.26-4.32l-.51-8.41-.51,8.41a2.25,2.25,0,0,0-.27,4.32l-.29,4.83h-1.22a2.47,2.47,0,0,0-2.47,2s0,0,0,.06a2.05,2.05,0,0,0,2.1,2.24H126A2.05,2.05,0,0,0,128.11,210.67Z" style="fill:#3b2579"/></g></svg>