<svg id="Layer_1" data-name="Layer 1" xmlns="http://www.w3.org/2000/svg" xmlns:xlink="http://www.w3.org/1999/xlink" viewBox="0 0 430.3 425.6"><defs><linearGradient id="linear-gradient" x1="214.28" y1="755.57" x2="215.02" y2="391.88" gradientTransform="matrix(1, 0, 0, -1, 0, 425.89)" gradientUnits="userSpaceOnUse"><stop offset="0" stop-color="#7b7150"/><stop offset="0.17" stop-color="#8a805e"/><stop offset="0.49" stop-color="#b0a684"/><stop offset="0.73" stop-color="#d1c7a4"/></linearGradient></defs><title>3</title><path d="M.5,234.8c1.4-.1,2.8-.2,4.5-.2a11,11,0,0,0,.2-1.8v-7.2c0-4.9-.7-9.8,3.1-14,1-1.1,1.2-3.3,1.2-4.9.1-11.5.1-23.1,0-34.6a9.66,9.66,0,0,0-1.2-4.4c-2.2-3.9-4.5-7.8-7-12H9.5a21.51,21.51,0,0,0,.2-2.3V92.3c0-1,.4-2.3-1.2-2.6-.2,0-.4-.6-.5-1V80.8a.75.75,0,0,1,.1-.5c3.7-3.7.6-8.3,1.6-12.4a.82.82,0,0,0-.1-.7c-3.4-2.2-.5-3.6.6-4.2,3.9-2.1,4.5-5.3,4.1-9.1a49.93,49.93,0,0,1,0-6.7,8.88,8.88,0,0,1,5.3-8.4c1.1-.6,2.2-.9,2-2.5-.1-.3.3-.8.6-1.1,1.5-1.1,1.6-2.4.2-3.7-2.6-2.3-2.7-4.8-.1-6.8,1.1-.9,1.2-1.5.4-2.7a6.06,6.06,0,0,1-.4-3.3c.2-2,.8-3.9.9-5.9,0-.5-1-1.3-1.6-1.7C17.9,8.6,17,4.3,19.7.1c-.3,3.6.5,6.4,3.3,8.3s5.8,1.6,9.2-.3c-1.5,3-3.7,3.8-6.3,4.3.1,2.2-.7,4.4,1,6.6.4.6.1,2.2-.4,3-.8,1.2-.8,1.8.4,2.7,2.6,2.1,2.5,4.6,0,6.8-1.4,1.2-1.4,2.6.1,3.7.2.2.6.5.6.6-.5,2.4,1.5,2.8,2.9,3.7a8.82,8.82,0,0,1,4,7.7c0,3.3.2,6.5-.1,9.8a4.43,4.43,0,0,0,2.5,4.6,17,17,0,0,1,3.3,2.7c.6.7,1.9,1.7,0,2.5-.3.1-.4,1.1-.4,1.7q-.15,4.05,0,8.1c0,1.2-.7,2.8,1.4,3.2.2,0,.3.8.3,1.3V88c0,.4,0,1.1-.2,1.1-2.6,1.1-1.5,3.4-1.5,5.1-.1,19.7-.1,39.5-.1,59.2,0,.5.1,1.1.1,1.9h8.4a51.67,51.67,0,0,1-2.7,4.6c-4.8,6.2-6.4,13.1-5.9,20.9.6,8.8-.1,17.7.3,26.5.1,2.8,2.3,5.5,3.5,8.2a5.56,5.56,0,0,1,.6,2.1c.1,4.8,0,9.6,0,14.3,0,.8.1,1.5.1,2.6,3.1,0,6,.1,8.9-.1.4,0,1.1-1,1.2-1.5a47.74,47.74,0,0,0,.1-5.4h8.5c0-.1.1-.3.1-.4-.6-.4-1.2-.7-1.7-1.1-3.4-2.9-7.2-5.4-9.9-8.8-6.7-8.5-5.2-19.8,3.5-26.7,3.8-3.1,8.2-5.4,12.4-8s8.6-4.8,12.7-7.6c3.9-2.6,7.9-5.3,9.1-10.1a29.78,29.78,0,0,0,.4-5.9c-.2-2-.9-3.9-1.1-6a4.6,4.6,0,0,0,4.5,3.8c-.7.3-1.3.6-2,.9.2,2.4.4,4.8.5,7.1-.2,0-.5.1-.7.1,3,6.4,8.9,9.7,14.5,13.1,4.3,2.7,9,4.9,13.3,7.5a49.27,49.27,0,0,1,8.6,6.4,18.73,18.73,0,0,1,1.1,26.6c-2.5,2.8-5.8,4.9-8.7,7.3a6.7,6.7,0,0,0-1.8,1.6h8.5a47.27,47.27,0,0,0,.1,5.4c.1.6.7,1.6,1.1,1.6,6.7.1,13.5.1,20.5.1v-8.7h17.1c.1-.2.1-.3.2-.5L163,224a63.6,63.6,0,0,1-19.4-15.6c-12.5-15.2-11.7-35.1,2.1-49.1,5.1-5.2,11-9.1,17.3-12.7,10.1-5.8,20.4-11.1,30.2-17.4,6.4-4.1,11.9-9.5,17.7-14.5.9-.7,1-2.3,1.6-3.4a4.57,4.57,0,0,1,1.1-1.6c1.1-.8,1.4-1.6.3-2.7-1.9-2-1.9-2.9,0-5,.3-.3.7-1,.6-1.1-1.6-1.6-.4-3.1,0-4.8a3.52,3.52,0,0,0-1.3-3.8c-2.3-2-2.4-4.8-.4-7.9-.2,2.8,0,5.3,2.2,6.5,1.9,1,4.2,1.2,6.4,1.7q-2,.9-5.1,2.1c.2.7.4,1.7.7,2.7.1.2.4.5.3.6-1.2,2.4.2,4.2,1,6.2.2.6-.6,1.9-1.2,2.6-1,1.1-1,1.8.2,2.7.5.3,1.1,1,1.1,1.3-.4,2.3,1.2,3.4,2.5,4.8,8.8,9.2,19.6,15.7,30.5,21.9,8.9,5,17.8,9.9,26.3,15.5,8.9,5.9,15.3,13.9,17.5,24.7,2.7,13.3-1.9,24.3-10.9,33.8a63.14,63.14,0,0,1-16.4,12.2,5.71,5.71,0,0,0-2.2,1.7h17v8.7h21.7v-6.8h8.5c0-.2.1-.3.1-.5-.6-.4-1.2-.8-1.9-1.2a30,30,0,0,1-10.3-9.4c-5.2-7.7-4.5-17.7,2.2-24,3.8-3.6,8.5-6.3,13-9.2,4.1-2.6,8.5-4.7,12.6-7.3,4.5-2.9,9.1-5.9,11.2-11.2h-.6c.1-1.9.4-3.8.4-5.7a15.94,15.94,0,0,0-.6-3,11.49,11.49,0,0,1-.4-3.3c.7,2.5,2,3.9,4.9,3.8-.8.3-1.5.7-2.3,1l.6,6.9c-.2,0-.5.1-.7.1,2.5,5.9,7.7,9,12.7,12.2,4.4,2.8,9.1,5,13.5,7.7a66,66,0,0,1,10.1,7.2c8.1,7.6,8.4,19.1.9,27.1-2.9,3.1-6.6,5.7-10,8.5h8.2v7h10.1c0-4.5-.1-8.9,0-13.3,0-2.3-.3-4.4,1.6-6.6,2.1-2.4,2.8-5.6,2.8-9.1-.2-11.1,0-22.1-.1-33.2a12.33,12.33,0,0,0-1.3-4.9c-2.1-3.8-4.4-7.5-6.8-11.7h8a21.51,21.51,0,0,0,.2-2.3c0-20.5,0-40.9-.1-61.4,0-.8-.7-1.6-1.1-2.4-.1-.3-.4-.5-.4-.8,0-2.8-1.1-6.3.2-8.2,2.6-4,.6-8,1.3-11.9a6.16,6.16,0,0,0-.9-2.7c-.3-.1-.6-.3-.9-.4,1.6-1.4,3.1-3,4.8-4.3a3.8,3.8,0,0,0,1.9-3.7c-.1-3.3,0-6.5,0-9.8-.1-4.4,1.9-7.4,5.8-9.4.7-.3,1-1.3,1.4-2a4.49,4.49,0,0,1,.6-1.2c1.6-1.5,1.6-2.5.1-3.8-2.4-2.1-2.4-4.7.1-6.7,1.1-.9,1.4-1.6.4-2.7s-.7-2.3-.2-3.7a24,24,0,0,0,.7-6c0-.4-1-.9-1.6-1.3-3.6-2.5-4.5-6.8-1.7-11-.3,3.8.5,6.7,3.3,8.5s5.9,1.5,9.3-.6a8.26,8.26,0,0,1-6.5,4.5c0,2.2-.7,4.4.8,6.4a2.81,2.81,0,0,1-.1,2.8c-1.1,1.4-1.1,2.1.4,3.3,2.2,1.7,2.1,4.5,0,6.4-1.7,1.6-1.7,2.4,0,3.9.1.1.3.2.3.3-.5,3,2.2,3.2,3.7,4.5a9.06,9.06,0,0,1,3.3,7.4c0,3.5-.1,7,.1,10.5a5.48,5.48,0,0,0,1.6,3.1c1.7,1.6,3.6,3,5.4,4.5-.3.1-.6.3-.9.4a18.87,18.87,0,0,0-.9,3.4q-.15,3.6,0,7.2c0,1.3-.7,2.9,1.3,3.5.2.1.3,1,.3,1.5,0,2,.1,4,0,6a12.81,12.81,0,0,1-1.1,2.4,7.42,7.42,0,0,0-.5,2.5V155h8.4a41.91,41.91,0,0,1-2.6,4.5c-5,6.2-6.3,13.3-5.8,21.2.5,8.7.1,17.5.2,26.3a11.84,11.84,0,0,0,3.7,8.4,3,3,0,0,1,.5,1.9v16.9c1.8.1,3.3.2,4.9.3V345.3H277.3V341c0-20.5,0-41.1-.1-61.6a11.08,11.08,0,0,0-1.7-5.5,35.61,35.61,0,0,0-17.1-13.3c-8.2-3.4-16.6-6.4-25.1-9.1-7.1-2.3-13.1-5.7-17.3-11.9-.1-.2-.4-.2-.7-.4-4.4,6.8-11,10.2-18.5,12.6-8.6,2.8-17.1,5.9-25.5,9.4a35.14,35.14,0,0,0-15.8,12.7,10.78,10.78,0,0,0-1.7,5.5c-.1,20.5-.1,40.9-.1,61.4v4.5H.6C.5,308.6.5,271.7.5,234.8ZM353.9,337.1v-29c-.9-.2-1.6-.3-2.3-.5,1.7-7-.5-13.2-6.2-14.5-12-2.8-15.6,3.8-14.6,14.6a13.64,13.64,0,0,0-1.7.4v29Zm-35,0v-29c-.7-.1-1.4-.3-2.2-.4,1.8-5.6.7-10.4-4.3-13.7a10.05,10.05,0,0,0-11.9.1c-4.9,3.3-5.8,8.1-4.3,13.6-.8.2-1.5.4-2,.5v29C302.6,337.1,310.6,337.1,318.9,337.1ZM66.7,337V308c-.8-.2-1.5-.3-2.1-.4,1.8-7.8-1.2-13.6-7.7-15.1a10,10,0,0,0-8.4,1.5c-4.9,3.4-5.9,8.1-4.3,13.7-.8.1-1.5.3-2.1.4v29C50.3,337,58.4,337,66.7,337Zm319.7-29.4c1.7-5.4.7-10.1-3.9-13.4a10.05,10.05,0,0,0-12.1-.3c-5,3.3-6,8.1-4.4,13.7-.8.1-1.4.3-2.1.4v29h24.7V308C387.9,307.9,387.2,307.7,386.4,307.6ZM111.8,337h24.8V308c-.8-.1-1.5-.3-2.1-.4,1.4-6.4.2-10.7-4-13.5-3.9-2.6-8.1-2.9-12.1-.2-5,3.3-6.1,8-4.3,13.7a22.5,22.5,0,0,1-2.2.5C111.8,317.8,111.8,327.3,111.8,337ZM79,307.6c-.8.1-1.4.3-2,.4v29h24.7V308c-.8-.2-1.5-.3-2.1-.4,1.4-6.4.1-10.7-4-13.5a11,11,0,0,0-12.2-.2C79,296.7,77.6,301,79,307.6ZM11.7,122.3h0V149a14.77,14.77,0,0,0,.1,2.1c.3,1.7,1.5,3,3.1,2.6,1.1-.2,2.1-1.5,2.9-2.6.4-.5.2-1.5.2-2.3V93.9c0-2.2-1.3-3.5-3.1-3.5s-3,1.3-3.2,3.5v28.4Zm397.4,0h0V96.1a28.1,28.1,0,0,0-.1-2.9,2.91,2.91,0,0,0-3.1-2.7,2.78,2.78,0,0,0-2.9,2.6,16.15,16.15,0,0,0-.2,3.1v53c0,.8-.2,1.8.2,2.3.8,1,1.9,2.3,2.8,2.3s2.2-1.2,2.9-2.2a5.34,5.34,0,0,0,.3-2.6C409.1,140.1,409.1,131.2,409.1,122.3Zm-371.5-.2V94.7c0-2.6-1.2-4.2-3.2-4.1s-3,1.5-3,4v55.1c0,.6-.2,1.3.1,1.6.9,1,1.9,2.4,3,2.5.9.1,2.1-1.2,2.9-2.2.4-.5.2-1.5.2-2.3C37.7,140.2,37.6,131.1,37.6,122.1Zm-9.9.2h0V95.6c0-3.6-1-5.2-3.2-5.1s-3.1,1.6-3.1,5v54.9a3.24,3.24,0,0,0,3.1,3.6c1.7.1,3-1.4,3.1-3.5v-1.7C27.7,140,27.7,131.1,27.7,122.3Zm391.2-.2V93.9c0-2.1-1.3-3.5-3.1-3.5s-3,1.4-3.2,3.5v55.6c0,.8-.1,1.9.3,2.3,1,.9,2.2,1.9,3.4,1.9,1.8-.1,2.5-1.6,2.5-3.4C418.9,140.9,418.9,131.5,418.9,122.1Zm-19.6.1V94.8c0-2.7-1.1-4.2-3.1-4.3S393,92,393,94.6V151c.3,1.8,1.3,3,3.1,3a3,3,0,0,0,3-2.8,12.1,12.1,0,0,0,.1-1.9C399.3,140.2,399.3,131.2,399.3,122.2Zm-161.8,111c0-2.7.1-5.3,0-7.8a3.57,3.57,0,0,0-3.6-3.4,5.43,5.43,0,0,0-3.8,3.1c-.6,2.5-.2,5.3-.2,8.1Zm-49,0c0-2.8.1-5.3,0-7.8-.1-1.4-2.9-4.1-3.9-3.6-1.4.8-3.3,2-3.6,3.3-.6,2.5-.2,5.3-.2,8.1Zm4.6,0h7.6c0-2.8.1-5.3,0-7.9-.1-1.3-2.8-3.9-3.7-3.3-1.4.7-3.3,1.9-3.6,3.2C192.7,227.7,193.1,230.4,193.1,233.2Zm12.3,0H213c0-2.7.1-5.3,0-7.9-.1-1.3-2.5-3.5-3.8-3.5s-3.7,2.1-3.8,3.5C205.3,227.9,205.4,230.4,205.4,233.2Zm19.9,0c0-2.8.4-5.6-.2-8.2a4.92,4.92,0,0,0-3.7-3c-1.2,0-3.3,1.8-3.6,3.1-.6,2.5-.2,5.3-.2,8.1Zm24.5,0c0-2.7.1-5.3,0-7.8a3.57,3.57,0,0,0-3.6-3.4,5.24,5.24,0,0,0-3.8,3.1c-.6,2.5-.2,5.3-.2,8.1Zm-81.2,0h7.6c0-2.7.1-5.3,0-7.9-.1-1.3-2.5-3.5-3.8-3.5s-3.7,2.1-3.8,3.4C168.5,227.8,168.6,230.4,168.6,233.2Zm93.5,0c0-2.7.1-5.2,0-7.6,0-1.6-2.4-4.1-3.7-3.7-1.5.5-3.4,1.8-3.7,3-.6,2.6-.2,5.4-.2,8.3Zm67.9,1.4a57.34,57.34,0,0,0-1.9-5.5c-.1-.2-1.9-.1-2,.2a41.17,41.17,0,0,0-1.2,5.3Zm-230.7-.1a43.41,43.41,0,0,0-1.7-5.4c-.1-.2-1.9-.2-2,.1a51.39,51.39,0,0,0-1.5,5.4C96.1,234.5,97.2,234.5,99.3,234.5Zm269.4.1c-.4-2.1,1-4.3-1.3-5.5-.5-.3-1.9-.1-2,.2-.5,1.7-.8,3.4-1.2,5.3Zm7.1.1c-.7-2.2-1.1-3.9-1.7-5.5-.1-.2-1.9-.2-2,.1-.6,1.6-.9,3.4-1.4,5.3,1,.1,1.4.2,1.8.2A25.6,25.6,0,0,1,375.8,234.7Zm-283.9,0c.6-4.1.1-5.8-1.6-6-1.5-.2-2.3,1.3-2.3,3.9C87.9,236.1,90.4,234.1,91.9,234.7Zm13.9-.2c-.5-2-.9-3.7-1.5-5.4-.1-.2-2.1-.2-2.2.1a41.17,41.17,0,0,0-1.2,5.3Zm13.3.1c-.7-2.1-1.1-3.9-1.8-5.5a3.42,3.42,0,0,0-2,.1,41.07,41.07,0,0,0-1.3,5.3C115.8,234.6,117,234.6,119.1,234.6Zm1.7-.1H125c0-1.3.3-2.5-.1-3.5s-1.3-1.5-2-2.3c-.7.7-1.7,1.4-2,2.2C120.5,231.9,120.8,233.2,120.8,234.5Zm222.3,0c-.7-2.1-1.2-3.8-1.9-5.4-.1-.2-1.9-.1-2,.2a39.51,39.51,0,0,0-1.3,5.2Zm6.4,0a49.22,49.22,0,0,0-1.5-5.3c-.1-.3-2.1-.2-2.2,0-.6,1.6-.9,3.4-1.4,5.3Zm-269.8,0c-.6-2.1-1.1-3.8-1.7-5.4-.1-.2-1.9-.2-2,.1-.6,1.6-.9,3.4-1.4,5.3Zm-13.3.1a45.36,45.36,0,0,0-1.5-5.4c-.1-.2-2.1-.2-2.2.1-.6,1.7-.8,3.4-1.3,5.3Zm-6.3-.1a42.59,42.59,0,0,0-1.8-5.4c-.1-.2-1.9-.2-2,.1-.6,1.6-.9,3.4-1.4,5.3Zm256.5,0c-.5-2-.8-3.7-1.4-5.4-.1-.2-2.1-.2-2.2.1-.6,1.7-.8,3.4-1.3,5.3Zm6.8,0c-.6-2.1-1.1-3.8-1.7-5.4-.1-.2-1.9-.2-2,.1-.6,1.6-.9,3.4-1.4,5.3Zm-250.3,0a43.41,43.41,0,0,0-1.7-5.4c-.1-.2-1.9-.2-2,.1-.6,1.6-1,3.4-1.5,5.3Zm289.4,0a50.29,50.29,0,0,0-1.4-5.3c-.1-.2-2.1-.2-2.2.1a37.37,37.37,0,0,0-1.3,5.3C359.5,234.5,360.6,234.5,362.5,234.5Zm-250.7,0a14.83,14.83,0,0,0-.1-3.7c-.2-.8-1.2-1.9-1.9-1.9a2.77,2.77,0,0,0-2,1.8,16.5,16.5,0,0,0-.1,3.9C109.1,234.5,110.3,234.5,111.8,234.5Zm193.8.4c1.5-.3,3.7-.4,3.8-.8a10.83,10.83,0,0,0-.5-4.7,2.63,2.63,0,0,0-2.2-.3C304.6,230.5,305.8,232.6,305.6,234.9Zm30.2-2.6c.3-1.6.1-3.4-1.9-3.5s-2.3,1.5-2.2,3.2c.1,1.4-.4,2.9,2,2.8C335.5,234.7,336.2,234.1,335.8,232.3Zm15.6,2.2h4.1c0-1.4.3-2.7-.1-3.9a2.77,2.77,0,0,0-2-1.8c-.7,0-1.7,1.1-2,1.9A24,24,0,0,0,351.4,234.5Zm-265.3,0c-.5-2-.9-3.7-1.5-5.4-.1-.2-2.1-.2-2.2.1-.5,1.7-.8,3.4-1.2,5.2C83.1,234.5,84.2,234.5,86.1,234.5Zm107.5,111H237V294.6l-4.1-.3c3.4-9.8,1.5-18.1-7.1-23.9-6.7-4.6-14.1-4.6-20.9-.1-8.7,5.8-10.5,14.2-7.3,24.1l-4.1.3C193.6,311.7,193.6,328.5,193.6,345.5ZM267,285.2c0-2.4-1.5-4-3.4-5.1s-3.5-2.1-5.3-3.1l-5.1,3a6.8,6.8,0,0,0-3.7,6.4v14.5c0,.8.1,1.7.1,2.6H267C267,297.2,267.1,291.2,267,285.2Zm-84.2-.4c-.1-1.5-1.6-3.3-2.8-4.4a30.63,30.63,0,0,0-5.7-3.4,40.49,40.49,0,0,0-5.1,3.1c-1.4,1.2-3.2,2.8-3.3,4.3-.4,6.3-.2,12.6-.2,19.1H183C183,297.1,183.2,290.9,182.8,284.8Z" style="opacity:0.44999998807907104;isolation:isolate;fill:url(#linear-gradient)"/><path d="M131.5,425.5,386.2,377a5,5,0,0,0,1.8-9.2l-90.1-58.1a7,7,0,0,0-5.3-1L44.5,356.9a5,5,0,0,0-1.9,9l81.8,58A9.46,9.46,0,0,0,131.5,425.5Z" style="fill:#bcbec0;opacity:0.5;isolation:isolate"/><path d="M84.9,248v4.6a5.21,5.21,0,0,0,2.5,4.4l61.1,35.5L124,308.7c-.3.2-.5.4-.8.6-3.3,3.3-29.6,29-41.6,35.4a5.22,5.22,0,0,0-2.7,4.5v2.4a5.17,5.17,0,0,0,1.7,3.8l16.9,15.4a5,5,0,0,0,6.7.1L150.8,332s7.7-6.5,13.9-.6c5.8,5.6-3.4,13.1-4.7,14.1l-.3.3L119,383.2s-7.4,6.5,1.4,14.8c6.5,6.1,12.3,10.6,14.8,12.6a5,5,0,0,0,3.1,1h5a5,5,0,0,0,3.3-1.2l48-40.8s4.8-4.3,29-19,41.8-25.9,65.9-43.5l72.9-55.9a5.07,5.07,0,0,0,1.8-5.3h0a5.38,5.38,0,0,0-2.5-3.2l-57.4-30.8a5.08,5.08,0,0,0-3.2-.5L89.2,243A5.14,5.14,0,0,0,84.9,248Z" style="fill:#935460"/><path d="M84.9,244.7v10.2a1.1,1.1,0,0,0,.6,1l63.1,36.6L123.7,309c-.1,0-.1.1-.2.1-1.8,1.7-31.3,30.8-43,36.3a1.16,1.16,0,0,0-.4,1.8l6.5,7.5.1.1,12.6,12.3a1.22,1.22,0,0,0,1.6.1l49.5-40.6s9.9-7.4,17-1.1c5.9,5.2,2.8,10.5,2.2,11.3l-.2.2L119,383.2s-7.4,6.5,1.4,14.8c7.2,6.7,13.4,11.5,15.5,13.1a1.2,1.2,0,0,0,1.4,0l10.7-8.5,46.3-41.2s4.8-4.2,30.7-18.8c25.4-14.3,39.5-23,63.6-40.6l73.6-57.1a1.18,1.18,0,0,0-.2-2l-58.9-31.6a.88.88,0,0,0-.7-.1L85.9,243.5A1.29,1.29,0,0,0,84.9,244.7Z" style="fill:#6c3e45"/><path d="M136.9,300.3s33.3,21.3,42.1,29.5,9.8,13.1,16.2,13.6c5.7.5,15.6-4.3,15.6-4.3l39.5-14.8-73-15.3-28.7-16.5Z" style="fill:#45282e"/><path d="M253.3,331.9l98.4,46.5s2,1,3.3-2.2a3.22,3.22,0,0,0-1.7-4.4L318,345.7l-20.5-13.8a1.52,1.52,0,0,1-.1-2.1c.9-1.3,3.1.4,3.1.4l22,10a.64.64,0,0,0,.9-.6v-1a3.1,3.1,0,0,0-.9-2.2l-22.1-22.9a14.42,14.42,0,0,0-2.7-2.2c-2.2-1.3-6.3-3.8-7.6-4.8Z" style="fill:#6c3e45"/><path d="M299.6,348.2l53.8,23.7s2.8.9,1.7,4.4-3.3,2.2-3.3,2.2L253.4,332l4.4-3Z" style="fill:#502a3a"/><path d="M78.4,237.2v.8a2.77,2.77,0,0,0,1.3,2.3L179.3,302a3.55,3.55,0,0,0,.9.4l70.9,18.5a4.44,4.44,0,0,0,3-.2l12-5.2a7.61,7.61,0,0,0,1.9-1.2l90.2-78.4a2.81,2.81,0,0,0,1-2.1v-.2a3,3,0,0,0-1.7-2.6L255.7,189.2a2.64,2.64,0,0,0-2.3.1l-75.6,40.1a2.28,2.28,0,0,1-1.1.3L80.4,235A2.33,2.33,0,0,0,78.4,237.2Z" style="fill:#eaa401"/><path d="M79.9,236l102.9,62.7h.1l68.4,19a2.52,2.52,0,0,0,1.5-.1l12.8-6.2a6.73,6.73,0,0,0,1.1-.7l91.7-78.5a.42.42,0,0,0-.1-.7L254.6,188.9h-.4l-77,40.9c-.1,0-.1,0-.2.1l-96.8,5.4C79.7,235.3,79.6,235.8,79.9,236Z" style="fill:#955b3a"/><path d="M80,232.6,183.5,299s41.1-19.7,66.3,11.7a5,5,0,0,0,5.7,1.5l8.3-3.3a4.85,4.85,0,0,0,2.6-2.3c5.8-10.8,40.8-72.3,89.7-74v-9.3L250.4,181.4s-66,9.9-77.2,47.2l-2.2.1C171.1,228.8,121.3,199.6,80,232.6Z" style="fill:#d5bd8f"/><path d="M84.5,229.2l98,63.4s43.7-18.9,69,13.1a4,4,0,0,0,4.8,1.1l7.3-3.6a4.36,4.36,0,0,0,1.7-1.6c5-9,42-72.8,90.9-74.6v-3.6L250.5,181.5s-66,9.9-77.2,47.2l-2.2.1S124.6,201.2,84.5,229.2Z" style="fill:#f2e6ce"/><path d="M249.5,188.6l84.8,34.8c-28.3,4.9-47.9,20.5-59.6,33.2a129.76,129.76,0,0,0-15.1,20c-1.8,3-3.1,5.4-3.9,7l-70.6-56.3a85,85,0,0,1,18.7-18.1,118.1,118.1,0,0,1,21.6-12.3,135.2,135.2,0,0,1,24.1-8.3m.2-1.8s-44.1,8.9-66.9,40.8l73.6,58.7s24.1-55.3,84.4-62.1l-91.1-37.4Z" style="fill:#ff8864"/><path d="M130,224.4a118.85,118.85,0,0,1,17.5,1.4A125.55,125.55,0,0,1,162,229a129.11,129.11,0,0,1,13.4,4.5l59.9,50.4a164.69,164.69,0,0,0-37.4-4.3,104.92,104.92,0,0,0-14.7.8l-80.4-51.6a81.24,81.24,0,0,1,27.2-4.4m0-1.7a79.54,79.54,0,0,0-31,5.8l83.7,53.7a122.18,122.18,0,0,1,15.1-.8,158.3,158.3,0,0,1,44.3,6.2l-65.8-55.5a126.86,126.86,0,0,0-46.3-9.4Z" style="fill:#ff8864"/><path d="M171.1,228.8l2.2-.1L190,240.6c.2.1.4.3.6.4l28.8,24.2a42,42,0,0,1,4.5,3.9l7.9,7.1c2.1,2,4.7,4,6.5,6.2l4.9,5a59.5,59.5,0,0,1,8,10l1.1,1.8a38.65,38.65,0,0,1,6.1,17.8,28.1,28.1,0,0,1,.1,2.9,162.57,162.57,0,0,1-1,18.5l-1-6.9-3.3,4.3s3.5-20.9-.8-29.7-11-16.4-18.2-22.5c-5.8-5-16.7-15.6-20.5-19.4-1-.9-2-1.9-3-2.7l-21.8-18.4Z" style="fill:#1c5045"/></svg>