<svg id="Layer_1" data-name="Layer 1" xmlns="http://www.w3.org/2000/svg" viewBox="0 0 430.3 425.6"><title>2</title><path d="M205.4,405.8c0,10.4-28.3,18.9-63.2,18.9S79,416.2,79,405.8s28.3-18.9,63.2-18.9S205.4,395.4,205.4,405.8Z" style="fill:#e0e0e0"/><ellipse cx="286.5" cy="405.8" rx="71.7" ry="20.1" style="fill:#e0e0e0"/><polygon points="275.5 71.7 275.5 93.4 306.4 93.4 306.4 66.7 275.5 71.7" style="fill:#e59553"/><path d="M316.4,24.9c-6.6-12.6-19.8-8.8-24.8-6.9-5-1.9-18.2-5.7-24.8,6.9,0,0-.3,9.4.3,19.8.6,9.8,1.6,20.4,4.1,24.8,4.7,8.2,12.6,12.6,19.8,12.9h1.2c7.2-.3,15.1-4.7,19.8-12.9C317.1,61,316.4,24.9,316.4,24.9Z" style="fill:#f9c38a"/><path d="M268.9,45.3s-8.8-6.3-7.2,6.9c.9,8.5,9.8,11.3,11,6.9Z" style="fill:#f9c38a"/><path d="M315.2,45.3s8.8-5,7.2,6.9c-1.6,10.4-9.8,11.3-11,6.9Z" style="fill:#f9c38a"/><path d="M267.4,48.8l.3,7.9s-5.3-1.6-3.5-7.5C265.2,46,267.4,48.8,267.4,48.8Z" style="fill:#e59553"/><path d="M315.8,48.8l-.3,7.9s5.3-1.6,3.5-7.5C318.3,46,315.8,48.8,315.8,48.8Z" style="fill:#e59553"/><path d="M316.4,9.8c-6.6-5.7-13.5-6.6-23.9-6.6-6.3,0-17.6-.3-25.8,6.9-6.3,5.3-4.7,31.5-3.5,34.3a7,7,0,0,1,3.1.3l.9,6.3,1.3.6.3.3-.3-15.7,2.2-3.8s-.6-5.3,1.3-7.9c1.3-1.9,12.3-.6,20.4-.6,7.9,0,17-.9,18.6.9,1.9,2.5,1.3,7.9,1.3,7.9l2.2,3.8-.3,15.7,1.6-.6.9-6.3a7.28,7.28,0,0,1,3.1-.3C321.1,41.9,322.7,15.1,316.4,9.8Z" style="fill:#333"/><path d="M296.9,57.3c-.3-2.2-2.2-6.3-2.5-7.2-.6-1.9-1.6-1.3-1.3.3,0,.9.6,3.8.6,6.3.3,2.8-.3,3.1-.9,4.7-.3.9,0,1.6,1.3.9A5.08,5.08,0,0,0,296.9,57.3Z" style="fill:#e59553"/><path d="M268.9,47.8s1.3,15.4,5,20.4a22.58,22.58,0,0,0,17,8.5c6.9.3,14.5-3.8,17.6-8.5,5.3-8.2,6-19.8,6-19.8l1.3,2.5s.3,18.9-4.7,26.7c-4.7,7.5-9.1,10.1-19.5,10.1-12,0-17.3-3.5-21.1-12-3.8-8.8-3.5-28.6-3.5-28.6Z" style="fill:#333"/><path d="M298.5,66.7c-2.2,0-4.1.3-6.3.3a80.93,80.93,0,0,1-8.5-.6.57.57,0,0,0-.3.9c2.2,1.6,6.3,1.6,8.8,1.6,2.2,0,4.7,0,6.6-.9C300.1,67.3,299.8,66.7,298.5,66.7Z" style="fill:#e59553"/><path d="M296.3,71.1a25.28,25.28,0,0,1-4.7.3c-1.2,0-3.5-.3-4.7-.3-.6,0-.6.3,0,.6.9.6,3.5.9,4.7.9a11.54,11.54,0,0,0,4.4-.9C296.9,71.4,297.2,70.8,296.3,71.1Z" style="fill:#e59553"/><path d="M278,222.7l23.6,10.7s12.3-18.9,17.6-15.4,13.5,0,18.9-2.8c4.1-3.8,15.1-14.8,15.1-23.3,0-8.8-1.3-46.6-2.8-62-1.3-12.9-2.8-18.2-17.9-24.2-13.5-5.3-22-7.9-22-7.9L285,96.6v2.2l-12.6-.9s-8.5,2.5-22,7.9c-15.1,6-16.4,11.3-17.9,24.2-1.6,15.4-2.8,53.2-2.8,62,0,7.9,10.4,18.9,14.8,23,3.5,2.5,10.7,6.3,17.6,6.6C268.9,222.1,278,222.7,278,222.7Z" style="fill:#ccc"/><path d="M244.1,219l-1.9,186.8h98.1l-2.2-190.3c-6,6.9-22,13.2-43.7,13.2C274.9,228.7,251.6,225.2,244.1,219Z" style="fill:#ccc"/><path d="M319.3,218c-5.3-3.8-17.6,15.4-17.6,15.4L278,222.7s-9.1-.6-15.7-.9c-7.2-.3-17.9-6.9-17.9-6.9v8.5c6,3.5,19.2,1.6,30.2,9.8,6.3,4.7,12.6,9.4,21.1,9.1,13.5-.6,15.1-2.8,23-10.1,6.9-6.3,17-7.5,20.1-10.4v-6.9C338.4,214.6,324.6,221.5,319.3,218Z" style="fill:#b2b2b2"/><path d="M262.3,29.6s17.6-2.8,30.5-2.8c10.7,0,28.3,2.8,28.3,2.8s1.6-12.9-3.1-22.3c-4.1-8.5-47.8-8.2-52.8.3C260.7,15.8,262,24.9,262.3,29.6Z" style="fill:#ccc"/><path d="M321.1,31.5c-7.5-1.3-20.8-3.1-28.3-3.5-8.5-.3-23.6,1.9-30.5,3.1,0-.6-.3-1.6-.3-2.5,6.9-1.3,21.7-3.5,30.8-3.1,7.9.3,20.8,2.2,28.6,3.5A6.88,6.88,0,0,0,321.1,31.5Z" style="fill:#fff"/><polygon points="269.6 90 269.6 99.4 285.6 99.4 285.6 192.5 296.6 192.5 296.6 99.4 314.5 99.4 314.5 90 269.6 90" style="fill:#b2b2b2"/><path d="M332.8,174.3c-2.2-.9-4.1-1.3-1.6-6.6,9.4-20.4,6.3-54.4,6.3-54.4-5,27.7-9.1,47.8-18.2,60.7a133.72,133.72,0,0,1-17,18.6c-6.3,5.7-12.9,6.9-19.8,1.9s-13.8-13.5-18.9-20.4c-9.1-12.9-13.2-33.3-18.2-60.7,0,0-3.1,34.3,6.3,54.4,2.5,5.3.6,5.7-1.6,6.6-1.6.6-8.2,4.7-6,5,2.5.3,10.1-3.1,14.5.3,5,4.1,13.2,14.5,16.4,19.5,6.3,10.4,12,12,13.8,12.3l-.3,3.5s16.7-5.3,21.1-9.1c5.3-10.4,10.1-22,15.1-26.1,4.4-3.5,12,0,14.5-.3C341.3,179,334.4,174.6,332.8,174.3Z" style="fill:#b2b2b2"/><path d="M309.5,203.5l9.4,13.5s-8.2,11.3-13.8,15.1c-6.3,4.4-15.4,2.2-20.4.3-1.3-.6-2.5-3.1-3.1-4.1-2.5-.9-4.1-2.2-3.5-4.1,3.1-.6,17.9-2.5,17.9-7.2,0-1.9-6.6.3-9.4-.9-3.1-1.6-6-5.3,0-4.7C290.9,211.4,304.5,208.6,309.5,203.5Z" style="fill:#f9c38a"/><path d="M281.2,205.7l-9.4,13.5s8.2,11.3,13.8,15.1c6.3,4.4,15.4,2.2,20.4.3,1.3-.6,2.5-3.1,3.1-4.1,2.5-.9,4.1-2.2,3.5-4.1-3.1-.6-17.6-2.2-17.6-6.9,0-1.9,6.3,0,9.1-1.3,3.1-1.6,6-5.3,0-4.7C299.8,213.3,286.2,210.8,281.2,205.7Z" style="fill:#f9c38a"/><path d="M274.3,197.9l10.1,8.2a37.83,37.83,0,0,0-5,7.9,45.87,45.87,0,0,0-3.5,12.9l-11.6-6s.6-10.7,4.4-17C272.1,197.9,274.3,197.9,274.3,197.9Z" style="fill:#ccc"/><path d="M276.8,197.3S267,208.6,266.4,219a28,28,0,0,0,0,6l-3.8-1.9s0-12.9,5.3-21.4,7.2-8.5,7.2-8.5Z" style="fill:#b2b2b2"/><path d="M314.2,197.9l-10.1,8.5a37.83,37.83,0,0,1,5,7.9,77.17,77.17,0,0,1,4.4,12.6l10.7-6.6s-.6-9.8-4.4-16C316.4,197.9,314.2,197.9,314.2,197.9Z" style="fill:#ccc"/><path d="M312,197.3s9.8,11.3,10.4,21.7a28,28,0,0,1,0,6l3.8-1.9s0-12.9-5.3-21.4-7.2-8.5-7.2-8.5Z" style="fill:#b2b2b2"/><path d="M312.6,226.2s-14.8-4.4-15.4-5.7.9-1.6,1.9-1.9c2.2-.6,3.1-.6,4.4-1.6a5.26,5.26,0,0,0,2.2-3.8c0-1.9-.3-2.2-.6-.9-.6,2.2-1.3,2.5-3.5,3.5s-4.7,1.3-6,2.2-3.1,2.2.6,4.1a75.44,75.44,0,0,0,11.3,4.1C309.8,226.8,311.4,227.4,312.6,226.2Z" style="fill:#e59553"/><path d="M308.9,230.6s-6-.9-6.9-1.3c-2.8-.6-.6,1.6,2.2,1.9A9.5,9.5,0,0,0,308.9,230.6Z" style="fill:#e59553"/><path d="M107.2,196s.9,11,3.8,13.8h-5.7c-2.2,0-3.5,1.3,0,3.1,1.6.9,6.3,1.6,9.4,1.3,9.4-1.3,8.8-16,8.8-16l-12.3-12.9Z" style="fill:#f9c38a"/><path d="M184.6,196s-.9,11-3.8,13.8h5.7c2.2,0,3.5,1.3,0,3.1-1.6.9-6.3,1.6-9.4,1.3-9.4-1.3-8.8-16-8.8-16l12.3-12.9Z" style="fill:#f9c38a"/><path d="M88.4,156.7c1.9,7.2,20.8,29.6,25.2,34.9l2.5-2.5L93.4,157l17.9-16h0l3.1-8.5C114.8,133.1,94.4,151.6,88.4,156.7Z" style="fill:#2b687a"/><path d="M177.7,133.1l3.1,8.5,17.9,15.7-22,30.8,2.5,2.8c5-6,22.6-27.4,24.5-34.3C198.2,151.6,177.7,133.1,177.7,133.1Z" style="fill:#2b687a"/><path d="M220.5,152.9c-3.5-6-24.2-31.8-30.5-39.9-1.9,1.6-6.3,2.8-7.9,4.1-3.8,3.1-71.1-4.1-74.2-6.6a5.39,5.39,0,0,1-1.9-1.3,18.64,18.64,0,0,0-2.2,2.5c-4.7,6.6-28,34.9-31.8,41.2-2.8,4.7.9,9.8,3.5,13.8,8.8,14.2,31.1,32.1,31.1,32.1l6.9-7.2c-4.4-5.3-23.3-27.7-25.2-34.9,6-5,26.4-23.6,26.4-23.6s-2.2,5.3-3.8,10.1c-1.3,4.1-1.9,8.2,2.5,15.1a44.38,44.38,0,0,1,4.1,8.5c2.8,9.1,2.8,18.6,3.1,23.9l50.6.6a85.77,85.77,0,0,1,3.5-23.6,41.78,41.78,0,0,1,3.5-9.1c4.4-6.9,3.5-12.3,2.8-15.4-.6-4.7-3.5-10.4-3.5-10.4s20.4,18.6,26.4,23.6c-1.9,6.9-19.5,28-24.5,34.3l6.9,7.5s22-17.6,30.5-31.8C219.2,162.6,223,157.6,220.5,152.9Z" style="fill:#333"/><path d="M155.1,112c8.8-.3,17.9-.6,26.7-2.5l3.8-.9a16.57,16.57,0,0,0-8.8-3.8L146,107.9l-30.8-3.1a9,9,0,0,0-3.5.9,36.34,36.34,0,0,0,18.6,6.3A228,228,0,0,0,155.1,112Z" style="fill:#c6221e"/><path d="M115.7,120.8c2.5,3.1,13.5,13.2,32.1,13.5,10.1,0,17.3-3.1,24.2-7.9,4.1-2.8,7.9-6,12-9.1,1.6-1.3,4.4-2.5,6-4.4a7.3,7.3,0,0,0-.9-1.3,9.17,9.17,0,0,0-3.1-3.1c-1.3.3-2.8.6-3.8.9-8.5,1.9-17.9,2.2-26.7,2.5a227.7,227.7,0,0,1-24.8-.3c-6.6-.3-12.9-2.8-18.6-6.3a18.84,18.84,0,0,0-6.3,3.8,21.41,21.41,0,0,1,1.9,1.3C110.7,113,113.9,118.3,115.7,120.8Z" style="fill:#2b687a"/><path d="M147.2,18c-10.1.3-23.3,1.9-28.6,18.9s-5,32.1-6.3,37.4c-2.8,12.9,0,14.8,3.1,17.6,3.1,3.1,2.8,6-2.2,5.3-4.1-.3-9.1,8.8-5.3,9.4,4.7.6,3.8,11.3,22.3,19.8,17.6,7.9,25.8,4.4,32.4,1.3,15.4-7.5,19.5-14.5,26.7-17.6,5.7-2.5,2.8-6.9-3.5-7.9-6-.6.6-6.6-3.1-12.3-1.9-2.8-4.7-1.9-5.7-7.5-.9-4.7,4.7-23.6,1.3-37.7C173.9,27.4,167.6,17,147.2,18Z" style="fill:#cfddfb"/><path d="M170.5,62.3c-.6-11.3-1.3-16-8.5-21.1-3.1-2.5-8.8-4.1-14.5-4.1h0c-5.7,0-11,1.6-14.5,4.1-7.2,5-7.9,9.8-8.5,21.1,0,2.5-.3,9.8,2.2,17.3,1.3,3.8,4.4,7.5,6.9,10.1,4.1,3.8,7.9,6,12.3,6.3h2.8c4.4-.6,8.2-2.8,12.3-6.3,2.8-2.5,6-6.3,6.9-10.1C170.8,72.4,170.5,65.1,170.5,62.3Z" style="fill:#f9c38a"/><path d="M151,73.6c-.6-2.2-2.2-2.8-1.9-.3.3,1.3.9,2.5-.6,3.8-.6.6,0,1.3.9.6C151,76.8,151.3,75.8,151,73.6Z" style="fill:#e59553"/><path d="M124.5,61.4s2.8-20.8,23.9-20.4c20.8.3,22.3,20.8,22.3,20.8s6.6-28.6-19.2-33.3C130.8,24.9,117.9,45,124.5,61.4Z" style="fill:#2b687a"/><path d="M188.7,375.9c-.6-8.2-.6-16.7-1.3-27.4-1.9-33-6.6-94.1-6.9-105.7-.6-21.1-5.3-33-7.2-42.5-1.6-8.8-.3-22.6,1.3-31.5h-56c.9,4.7,3.8,21.1.6,32.1-4.1,13.5-6.9,19.5-8.8,35.9-1.6,13.5-6.9,89-12.3,135.9a201.25,201.25,0,0,0,50.3,6.3C164.2,379.4,178.3,377.5,188.7,375.9Z" style="fill:#333"/><path d="M192.2,402a227.19,227.19,0,0,1-3.5-26.1,269.87,269.87,0,0,1-40.6,3.1,201.25,201.25,0,0,1-50.3-6.3c-1.3,10.1-2.2,19.2-3.5,25.5C108.8,414.9,174.9,413.3,192.2,402Z" style="fill:#2b687a"/></svg>